<svg width="14" height="14" viewBox="0 0 14 14" fill="none" xmlns="http://www.w3.org/2000/svg">
<path fill-rule="evenodd" clip-rule="evenodd" d="M5.5 0C4.67157 0 4 0.671573 4 1.5V3H5V1.5C5 1.22386 5.22386 1 5.5 1H12.5C12.7761 1 13 1.22386 13 1.5V8.5C13 8.77614 12.7761 9 12.5 9H5.5C5.22386 9 5 8.77614 5 8.5V7H4V8.5C4 9.32843 4.67157 10 5.5 10H12.5C13.3284 10 14 9.32843 14 8.5V1.5C14 0.671573 13.3284 0 12.5 0H5.5ZM9 12.5C9 12.7761 8.77614 13 8.5 13L1.5 13C1.22386 13 1 12.7761 1 12.5L1 5.5C1 5.22386 1.22386 5 1.5 5L8.5 5C8.77614 5 9 5.22386 9 5.5V8H10V5.5C10 4.67157 9.32843 4 8.5 4L1.5 4C0.671574 4 0 4.67157 0 5.5V12.5C0 13.3284 0.671573 14 1.5 14L8.5 14C9.32843 14 10 13.3284 10 12.5V12H9V12.5Z" fill="#F59E0B"/>
</svg>
