<svg width="16" height="16" viewBox="0 0 16 16" fill="none" xmlns="http://www.w3.org/2000/svg">
<path d="M15 8C15 11.866 11.866 15 8 15C4.13401 15 1 11.866 1 8C1 4.13401 4.13401 1 8 1C11.866 1 15 4.13401 15 8Z" fill="#1F2937" stroke="#1F2937" stroke-width="2"/>
<path fill-rule="evenodd" clip-rule="evenodd" d="M11.6115 4.81333C11.7288 4.696 11.7288 4.50577 11.6115 4.38844C11.4942 4.27111 11.304 4.27111 11.1866 4.38844L8 7.57509L4.81337 4.38844C4.69604 4.27111 4.50581 4.27111 4.38849 4.38844C4.27116 4.50577 4.27116 4.696 4.38849 4.81333L7.57511 7.99998L4.38844 11.1867C4.27111 11.304 4.27111 11.4942 4.38844 11.6116C4.50577 11.7289 4.69599 11.7289 4.81332 11.6116L8 8.42487L11.1867 11.6116C11.304 11.7289 11.4942 11.7289 11.6116 11.6116C11.7289 11.4942 11.7289 11.304 11.6116 11.1867L8.42489 7.99998L11.6115 4.81333Z" fill="#F9FAFB"/>
<path fill-rule="evenodd" clip-rule="evenodd" d="M4.17604 4.17599C4.4107 3.94134 4.79116 3.94133 5.02582 4.17599L8 7.1502L10.9742 4.176C11.2088 3.94133 11.5893 3.94133 11.824 4.176C12.0586 4.41066 12.0586 4.79111 11.824 5.02577L8.84977 7.99998L11.824 10.9742C12.0587 11.2089 12.0587 11.5893 11.824 11.824C11.5893 12.0587 11.2089 12.0587 10.9742 11.824L8 8.84975L5.02577 11.824C4.79111 12.0587 4.41065 12.0587 4.17599 11.824C3.94134 11.5893 3.94134 11.2089 4.17599 10.9742L7.15023 7.99998L4.17604 5.02577C3.94138 4.79111 3.94138 4.41065 4.17604 4.17599Z" fill="#F9FAFB"/>
<path fill-rule="evenodd" clip-rule="evenodd" d="M3.99926 3.99922C4.33155 3.66693 4.8703 3.66693 5.20259 3.99922L8 6.79664L10.7974 3.99922C11.1297 3.66693 11.6684 3.66693 12.0007 3.99922C12.333 4.33151 12.333 4.87026 12.0007 5.20255L9.20333 7.99998L12.0008 10.7974C12.3331 11.1297 12.3331 11.6685 12.0008 12.0008C11.6685 12.3331 11.1297 12.3331 10.7975 12.0008L8 9.20331L5.20254 12.0008C4.87025 12.3331 4.33151 12.3331 3.99922 12.0008C3.66693 11.6685 3.66693 11.1297 3.99922 10.7974L6.79667 7.99998L3.99926 5.20255C3.66698 4.87026 3.66698 4.33151 3.99926 3.99922ZM4.6366 4.56522C4.6169 4.54552 4.58496 4.54552 4.56526 4.56522C4.54556 4.58491 4.54556 4.61685 4.56526 4.63655L7.92866 7.99998L4.56521 11.3634C4.54552 11.3831 4.54552 11.4151 4.56521 11.4348C4.58491 11.4545 4.61685 11.4545 4.63655 11.4348L8 8.07131L11.3635 11.4348C11.3832 11.4545 11.4151 11.4545 11.4348 11.4348C11.4545 11.4151 11.4545 11.3831 11.4348 11.3634L8.07133 7.99998L11.4347 4.63655C11.4544 4.61685 11.4544 4.58491 11.4347 4.56522C11.415 4.54552 11.3831 4.54552 11.3634 4.56522L8 7.92864L4.6366 4.56522Z" fill="#F9FAFB"/>
</svg>
