<svg width="16" height="13" viewBox="0 0 16 13" fill="none" xmlns="http://www.w3.org/2000/svg">
<path d="M13.5501 1.03713C12.513 0.549805 11.4071 0.199929 10.2451 0C10.1014 0.256159 9.93891 0.599787 9.8202 0.874689C8.58939 0.687256 7.37107 0.687256 6.16525 0.874689C6.05279 0.599787 5.87785 0.256159 5.7404 0C4.58456 0.199929 3.47246 0.556053 2.43533 1.03713C0.348566 4.19226 -0.213734 7.27242 0.0674159 10.3088C1.45442 11.346 2.7977 11.9707 4.11598 12.3831C4.44086 11.9333 4.73451 11.4584 4.98442 10.9586C4.50959 10.7774 4.0535 10.5525 3.6224 10.2963C3.73486 10.2089 3.84732 10.1214 3.95978 10.0339C6.5901 11.2648 9.45158 11.2648 12.0507 10.0339C12.1631 10.1277 12.2693 10.2151 12.388 10.2963C11.9569 10.5588 11.4946 10.7837 11.0198 10.9649C11.2697 11.4647 11.5571 11.9458 11.8882 12.3894C13.2065 11.977 14.5498 11.3522 15.9368 10.3151C16.2554 6.79134 15.3557 3.74242 13.5501 1.03713ZM5.34054 8.44075C4.55332 8.44075 3.90355 7.70351 3.90355 6.80383C3.90355 5.90415 4.53458 5.16692 5.34054 5.16692C6.14651 5.16692 6.79003 5.90415 6.77753 6.80383C6.77753 7.70351 6.14026 8.44075 5.34054 8.44075ZM10.6512 8.44075C9.86394 8.44075 9.21417 7.70351 9.21417 6.80383C9.21417 5.90415 9.84519 5.16692 10.6512 5.16692C11.4571 5.16692 12.1006 5.90415 12.0881 6.80383C12.0881 7.70351 11.4571 8.44075 10.6512 8.44075Z" fill="#1F2937"/>
</svg>
