<svg width="16" height="16" viewBox="0 0 16 16" fill="none" xmlns="http://www.w3.org/2000/svg">
<path fill-rule="evenodd" clip-rule="evenodd" d="M8 16C12.4183 16 16 12.4183 16 8C16 3.58172 12.4183 0 8 0C3.58172 0 0 3.58172 0 8C0 12.4183 3.58172 16 8 16ZM8.16801 2.56435C8.09081 2.43177 7.89923 2.4319 7.82221 2.56458L4.82431 7.72899C4.76983 7.82284 4.80013 7.94301 4.89259 7.99981L7.89038 9.84139C7.95451 9.88079 8.03533 9.88085 8.09952 9.84154L11.1069 7.99986C11.1996 7.94308 11.23 7.82262 11.1752 7.72866L8.16801 2.56435ZM8.08754 10.7831C8.02182 10.8253 7.93759 10.8253 7.87181 10.7833L5.51555 9.27665C5.33379 9.16043 5.1222 9.37463 5.24065 9.55495L7.8123 13.4701C7.89136 13.5905 8.06789 13.5903 8.14678 13.4699L10.7098 9.55566C10.828 9.37517 10.6161 9.16127 10.4345 9.27775L8.08754 10.7831Z" fill="#3B82F6"/>
<path fill-rule="evenodd" clip-rule="evenodd" d="M7.82232 2.56456C7.89934 2.43187 8.09092 2.43174 8.16812 2.56432L11.1754 7.72864C11.2301 7.8226 11.1997 7.94305 11.107 7.99984L8.09963 9.84152C8.03544 9.88082 7.95463 9.88077 7.89049 9.84137L4.8927 7.99979C4.80024 7.94299 4.76994 7.82282 4.82442 7.72897L7.82232 2.56456ZM7.87193 10.7833C7.9377 10.8253 8.02193 10.8253 8.08765 10.7831L10.4346 9.27773C10.6162 9.16125 10.8281 9.37515 10.7099 9.55563L8.1469 13.4698C8.06801 13.5903 7.89147 13.5904 7.81241 13.4701L5.24076 9.55492C5.12232 9.3746 5.3339 9.1604 5.51566 9.27662L7.87193 10.7833Z" fill="white"/>
</svg>
