<svg width="14" height="14" viewBox="0 0 14 14" fill="none" xmlns="http://www.w3.org/2000/svg">
<path fill-rule="evenodd" clip-rule="evenodd" d="M7.00016 0.333496C3.31816 0.333496 0.333496 3.32283 0.333496 7.0115C0.333496 9.9615 2.2435 12.4648 4.89283 13.3475C5.22616 13.4088 5.3475 13.2028 5.3475 13.0255C5.3475 12.8675 5.34216 12.4468 5.33883 11.8902C3.48416 12.2935 3.09283 10.9948 3.09283 10.9948C2.79016 10.2228 2.35283 10.0175 2.35283 10.0175C1.7475 9.60416 2.39883 9.61216 2.39883 9.61216C3.0675 9.65883 3.4195 10.3002 3.4195 10.3002C4.01416 11.3202 4.98016 11.0255 5.3595 10.8548C5.42083 10.4235 5.59283 10.1295 5.7835 9.96283C4.3035 9.79416 2.74683 9.22083 2.74683 6.66216C2.74683 5.9335 3.00683 5.33683 3.43283 4.87016C3.36416 4.7015 3.1355 4.02216 3.49816 3.1035C3.49816 3.1035 4.05816 2.9235 5.3315 3.7875C5.87534 3.63917 6.43645 3.56362 7.00016 3.56283C7.56683 3.5655 8.13683 3.6395 8.6695 3.7875C9.94216 2.9235 10.5008 3.10283 10.5008 3.10283C10.8648 4.02216 10.6355 4.7015 10.5675 4.87016C10.9942 5.33683 11.2528 5.9335 11.2528 6.66216C11.2528 9.2275 9.6935 9.79216 8.20883 9.9575C8.44816 10.1635 8.66083 10.5708 8.66083 11.1942C8.66083 12.0862 8.65283 12.8068 8.65283 13.0255C8.65283 13.2042 8.77283 13.4122 9.1115 13.3468C10.439 12.9016 11.5931 12.0504 12.4105 10.9135C13.2279 9.77669 13.6674 8.41171 13.6668 7.0115C13.6668 3.32283 10.6815 0.333496 7.00016 0.333496Z" fill="#1F2937"/>
</svg>
