<svg width="16" height="16" viewBox="0 0 16 16" fill="none" xmlns="http://www.w3.org/2000/svg">
<path fill-rule="evenodd" clip-rule="evenodd" d="M8 16C12.4183 16 16 12.4183 16 8C16 3.58172 12.4183 0 8 0C3.58172 0 0 3.58172 0 8C0 12.4183 3.58172 16 8 16ZM4.18025 4.18034C4.42057 3.94001 4.81022 3.94001 5.05055 4.18034L8.00008 7.12987L10.9496 4.18034C11.1899 3.94001 11.5796 3.94001 11.8199 4.18034C12.0602 4.42067 12.0602 4.81031 11.8199 5.05064L8.87039 8.00018L11.8198 10.9495C12.0601 11.1899 12.0601 11.5795 11.8198 11.8198C11.5794 12.0602 11.1898 12.0602 10.9495 11.8198L8.00008 8.87048L5.05072 11.8198C4.81039 12.0602 4.42074 12.0602 4.18041 11.8198C3.94009 11.5795 3.94009 11.1899 4.18041 10.9495L7.12978 8.00018L4.18025 5.05064C3.93992 4.81031 3.93992 4.42067 4.18025 4.18034Z" fill="#EF4444"/>
</svg>
