<svg width="24" height="16" viewBox="0 0 24 16" fill="none" xmlns="http://www.w3.org/2000/svg">
<path d="M2.32352 0C3.37332 0 4.26027 0.697928 4.54816 1.65467C5.65322 1.73319 6.71174 2.21301 7.494 3.00109L11.7165 7.22065C11.731 7.23519 11.7485 7.24973 11.763 7.26718L16.3926 11.8939C16.9567 12.4609 17.7361 12.7837 18.5329 12.7837C18.5358 12.7837 18.5387 12.7837 18.5416 12.7837H18.7975C19.1465 11.9433 19.9753 11.353 20.9437 11.353C22.2261 11.353 23.2672 12.394 23.2672 13.6765C23.2672 14.9589 22.2261 16 20.9437 16C19.9084 16 19.036 15.3253 18.7336 14.3889H18.5445C18.5416 14.3889 18.5358 14.3889 18.5329 14.3889C17.3144 14.3889 16.1221 13.8946 15.2643 13.0309L11.0244 8.79099C11.0069 8.77644 10.9866 8.7619 10.9691 8.74446L6.35405 4.12941C5.84806 3.6205 5.16467 3.30934 4.44929 3.25118C4.0916 4.07125 3.27445 4.64413 2.32061 4.64413C1.04108 4.64413 0 3.60596 0 2.32352C0 1.04108 1.04108 0 2.32352 0Z" fill="#F9FAFB"/>
<path d="M2.32352 11.3531C3.29189 11.3531 4.11778 11.9434 4.46965 12.7838H4.72555C4.72846 12.7838 4.73137 12.7838 4.73428 12.7838C5.53399 12.7838 6.31334 12.461 6.87459 11.894L9.63722 9.13135L10.7684 10.2626L8.00291 13.0281C7.14213 13.8918 5.95274 14.3862 4.73428 14.3862C4.73137 14.3862 4.72555 14.3862 4.72265 14.3862H4.53362C4.2341 15.3196 3.35878 15.9972 2.32352 15.9972C1.04108 15.9972 0 14.9561 0 13.6737C0 12.3913 1.04108 11.3531 2.32352 11.3531Z" fill="#F9FAFB"/>
<path d="M20.9405 4.64413C19.9722 4.64413 19.1463 4.0538 18.7944 3.21338H18.5385C18.5356 3.21338 18.5327 3.21338 18.5298 3.21338C17.7301 3.21338 16.9507 3.53617 16.3895 4.10324L13.6268 6.86587L12.4956 5.73464L15.2611 2.9691C16.1219 2.10542 17.3113 1.61105 18.5298 1.61105C18.5327 1.61105 18.5385 1.61105 18.5414 1.61105H18.7304C19.0329 0.674664 19.9082 0 20.9405 0C22.223 0 23.2641 1.04108 23.2641 2.32352C23.2641 3.60596 22.223 4.64413 20.9405 4.64413Z" fill="#F9FAFB"/>
</svg>
