<svg width="24" height="24" viewBox="0 0 24 24" fill="none" xmlns="http://www.w3.org/2000/svg">
<path fill-rule="evenodd" clip-rule="evenodd" d="M12 24C18.6274 24 24 18.6274 24 12C24 5.37258 18.6274 0 12 0C5.37258 0 0 5.37258 0 12C0 18.6274 5.37258 24 12 24ZM14.7232 9.76501C15.0157 9.6188 15.3446 9.6188 15.6005 9.76501L18.5614 11.483C18.8538 11.6658 19 11.9582 19 12.2507V15.7232C19 16.0522 18.8172 16.3446 18.5614 16.4909L15.6005 18.2089C15.3081 18.3551 14.9791 18.3551 14.7232 18.2089L11.7624 16.4909C11.47 16.3081 11.3238 16.0157 11.3238 15.7232V14.517L12.7128 13.7128V14.8825C12.7128 15.2115 12.8956 15.5039 13.1514 15.6501L14.7232 16.564C15.0157 16.7102 15.3446 16.7102 15.6005 16.564L17.1358 15.6501C17.4282 15.4674 17.5744 15.1749 17.5744 14.8825V13.0548C17.5744 12.7258 17.3916 12.4334 17.1358 12.2872L15.564 11.3734C15.2715 11.2272 14.9426 11.2272 14.6867 11.3734L12.6762 12.5431L11.2872 13.3473L9.27676 14.517C8.98433 14.6632 8.65535 14.6632 8.39948 14.517L5.43864 12.799C5.14621 12.6162 5 12.3238 5 12.0313V8.5953C5 8.30287 5.14621 8.01044 5.43864 7.86423L8.43603 6.10966C8.72846 5.96345 9.05744 5.96345 9.31332 6.10966L12.2376 7.82768C12.53 8.01044 12.6762 8.30287 12.6762 8.5953V9.83812L11.2872 10.6423V9.43603C11.2872 9.10705 11.1044 8.81462 10.8486 8.66841L9.27676 7.71802C8.98433 7.5718 8.65535 7.5718 8.39948 7.71802L6.82768 8.63185C6.53525 8.81462 6.38903 9.10705 6.38903 9.39948V11.2272C6.38903 11.5561 6.5718 11.8486 6.82768 11.9948L8.39948 12.9452C8.69191 13.0914 9.02089 13.0914 9.27676 12.9452L11.2872 11.7389L12.6762 10.9713L14.7232 9.76501Z" fill="#6366F1"/>
</svg>
