<svg width="14" height="12" viewBox="0 0 14 12" fill="none" xmlns="http://www.w3.org/2000/svg">
<path d="M4.52683 11.5021C9.55816 11.5021 12.3102 7.33344 12.3102 3.71877C12.3102 3.6001 12.3102 3.4821 12.3022 3.36544C12.8376 2.97779 13.2997 2.49784 13.6668 1.9481C13.1675 2.16944 12.6379 2.31461 12.0955 2.37877C12.6666 2.03681 13.094 1.499 13.2982 0.865436C12.7613 1.18403 12.174 1.40859 11.5615 1.52944C11.1491 1.09061 10.6035 0.799992 10.0092 0.702573C9.41498 0.605153 8.80517 0.706369 8.27424 0.990549C7.74331 1.27473 7.32088 1.72602 7.07236 2.27454C6.82383 2.82307 6.76307 3.43823 6.8995 4.02477C5.81189 3.97026 4.7479 3.68765 3.77659 3.19528C2.80529 2.70291 1.94838 2.01179 1.2615 1.16677C0.911708 1.7689 0.804555 2.48172 0.961853 3.16008C1.11915 3.83844 1.52907 4.43135 2.10816 4.8181C1.673 4.80551 1.24725 4.68844 0.866829 4.47677V4.51144C0.867089 5.14297 1.08576 5.75497 1.48576 6.24367C1.88576 6.73238 2.44247 7.06769 3.0615 7.19277C2.6587 7.30258 2.23609 7.31854 1.82616 7.23944C2.00094 7.78309 2.34128 8.2585 2.79958 8.59918C3.25788 8.93986 3.81121 9.12875 4.38216 9.13944C3.81491 9.58515 3.16535 9.91466 2.47065 10.1091C1.77594 10.3036 1.04971 10.3592 0.333496 10.2728C1.58457 11.0757 3.04029 11.5015 4.52683 11.4994" fill="#1F2937"/>
</svg>
