<svg width="128" height="83" viewBox="0 0 128 83" fill="white" xmlns="http://www.w3.org/2000/svg">
<g clip-path="url(#clip0_354_816)">
<path d="M61.0484 25.8089C60.6304 25.3649 60.0296 25.1298 59.4288 25.1298C58.828 25.1298 58.2272 25.3649 57.8092 25.8089L53.2378 30.3804C52.7937 30.7983 52.5586 31.3991 52.5586 32C52.5586 32.6008 52.7937 33.2016 53.2378 33.6196L57.8092 38.191C58.6974 39.0791 60.1602 39.0791 61.0484 38.191C61.9366 37.3028 61.9366 35.84 61.0484 34.9518L58.0704 32L61.0484 29.0481C61.4925 28.6302 61.7276 28.0294 61.7276 27.4285C61.7276 26.8277 61.4925 26.2269 61.0484 25.8089Z" fill="#34D399"/>
<path d="M79.334 25.8089C78.4459 24.9208 76.983 24.9208 76.0948 25.8089C75.2067 26.6971 75.2067 28.16 76.0948 29.0481L79.0728 32L76.0948 34.9518C75.2067 35.84 75.2067 37.3028 76.0948 38.191C76.983 39.0791 78.4459 39.0791 79.334 38.191L83.9055 33.6196C84.3495 33.2016 84.5846 32.6008 84.5846 32C84.5846 31.3991 84.3495 30.7983 83.9055 30.3804L79.334 25.8089Z" fill="#34D399"/>
<path d="M68.5714 41.6914L73.1428 23.4057C73.4563 22.1518 72.6726 20.8718 71.4188 20.5584C70.1649 20.2449 68.8849 21.0286 68.5714 22.2825L64 40.5682C63.8171 41.169 63.8955 41.7959 64.209 42.3445C64.5224 42.8931 65.0449 43.2588 65.6457 43.4155C66.2465 43.5723 66.8996 43.4678 67.422 43.1282C67.9445 42.7886 68.3102 42.2661 68.4408 41.6653L68.5714 41.6914Z" fill="#34D399"/>
<path d="M59.4288 48.0131H54.8574C53.6035 48.0131 52.5586 49.0318 52.5586 50.3118C52.5586 51.5918 53.5774 52.6106 54.8574 52.6106H59.4288C60.6827 52.6106 61.7276 51.5918 61.7276 50.3118C61.7276 49.0318 60.6827 48.0131 59.4288 48.0131Z" fill="#34D399"/>
<path d="M82.2855 48.0131H68.5712C67.3174 48.0131 66.2725 49.0318 66.2725 50.3118C66.2725 51.5918 67.2912 52.6106 68.5712 52.6106H82.2855C83.5394 52.6106 84.5843 51.5918 84.5843 50.3118C84.5843 49.0318 83.5394 48.0131 82.2855 48.0131Z" fill="#34D399"/>
<path d="M126.563 32.1567L115.122 27.5853C114.573 27.3763 113.972 27.3763 113.424 27.5853L101.982 32.1567C101.12 32.4963 100.545 33.3584 100.545 34.2727V38.8441H93.7012V13.7143C93.7012 13.1135 93.4661 12.5388 93.022 12.0947C92.578 11.6506 92.0033 11.4155 91.4024 11.4155H45.7143C44.4604 11.4155 43.4155 12.4343 43.4155 13.7143V38.8702H36.5714V13.7143C36.5714 13.1135 36.3363 12.5388 35.8922 12.0947C35.4482 11.6506 34.8735 11.4155 34.2727 11.4155H27.4286V6.8702C27.4286 5.9298 26.8539 5.09388 25.9918 4.75429L14.5502 0.156735C14.0016 -0.0522449 13.4008 -0.0522449 12.8522 0.156735L1.43673 4.72816C0.574694 5.06775 0 5.9298 0 6.8702V20.5845C0 21.5249 0.574694 22.3608 1.43673 22.7004L12.8784 27.2718C13.4269 27.4808 14.0278 27.4808 14.5763 27.2718L26.018 22.7004C26.88 22.3608 27.4547 21.4988 27.4547 20.5845V16.0131H32.0261V66.2988H27.4286V61.7273C27.4286 60.7869 26.8539 59.951 25.9918 59.6114L14.5502 55.04C14.0016 54.831 13.4008 54.831 12.8522 55.04L1.43673 59.5853C0.574694 59.9249 0 60.7869 0 61.7012V75.4155C0 76.3559 0.574694 77.1918 1.43673 77.5314L12.8784 82.1029C13.4269 82.3118 14.0278 82.3118 14.5763 82.1029L26.018 77.5314C26.88 77.1918 27.4547 76.3298 27.4547 75.4155V70.8441H34.2988C34.8996 70.8441 35.4743 70.609 35.9184 70.1649C36.3624 69.7208 36.5975 69.1461 36.5975 68.5453V43.4155H43.4416V64C43.4416 65.8286 44.1731 67.5527 45.4531 68.8588C46.7331 70.1649 48.4833 70.8702 50.3118 70.8702H91.4286C93.2571 70.8702 94.9812 70.1388 96.2873 68.8588C97.5935 67.5788 98.2988 65.8286 98.2988 64V59.4286C98.2988 58.8278 98.0637 58.2531 97.6196 57.809C97.1755 57.3649 96.6008 57.1298 96 57.1298H93.7012V43.4155H100.571V47.9869C100.571 48.9273 101.146 49.7633 102.008 50.1029L113.45 54.6743C113.998 54.8833 114.599 54.8833 115.148 54.6743L126.589 50.1029C127.451 49.7633 128.026 48.9012 128.026 47.9869V34.2727C128 33.3584 127.425 32.4963 126.563 32.1567ZM11.4155 21.76L4.57143 19.0171V10.24L11.4155 12.9829V21.76ZM13.7143 8.96L8.43755 6.84408L13.7143 4.72816L18.991 6.84408L13.7143 8.96ZM22.8571 19.0171L15.9869 21.76V12.9829L22.8571 10.24V19.0171ZM11.4155 76.6171L4.57143 73.8743V65.0971L11.4155 67.84V76.6171ZM13.7143 63.8171L8.43755 61.7012L13.7143 59.5853L18.991 61.7012L13.7143 63.8171ZM22.8571 73.8743L15.9869 76.6171V67.84L22.8571 65.0971V73.8743ZM93.7012 64C93.7012 64.6008 93.4661 65.1755 93.022 65.6196C92.578 66.0637 92.0033 66.2988 91.4024 66.2988H56.738C56.9992 65.5673 57.1559 64.7837 57.1559 64V61.7012H93.7273L93.7012 64ZM54.8571 57.1559C53.6033 57.1559 52.5584 58.1747 52.5584 59.4547V64C52.5584 65.2539 51.5396 66.2988 50.2596 66.2988C48.9796 66.2988 47.9608 65.28 47.9608 64V16.0131H89.1037V57.1559H54.8571ZM111.987 49.1886L105.143 46.4457V37.6686L111.987 40.4114V49.1886ZM114.286 36.3886L109.009 34.2727L114.286 32.1567L119.562 34.2727L114.286 36.3886ZM123.429 46.4457L116.584 49.1886V40.4114L123.429 37.6686V46.4457Z" fill="#34D399"/>
</g>
<defs>
<clipPath id="clip0_354_816">
<rect width="128" height="82.2857" fill="white"/>
</clipPath>
</defs>
</svg>
