<svg width="18" height="16" viewBox="0 0 18 16" fill="none" xmlns="http://www.w3.org/2000/svg">
<mask id="path-1-inside-1_968_914" fill="white">
<path fill-rule="evenodd" clip-rule="evenodd" d="M1 0C0.447715 0 0 0.447715 0 1C0 1.55228 0.447715 2 1 2H1.5V14C1.5 15.1046 2.39543 16 3.5 16H14.5C15.6046 16 16.5 15.1046 16.5 14V2H17C17.5523 2 18 1.55228 18 1C18 0.447715 17.5523 0 17 0H14.5H3.5H1Z"/>
</mask>
<path fill-rule="evenodd" clip-rule="evenodd" d="M1 0C0.447715 0 0 0.447715 0 1C0 1.55228 0.447715 2 1 2H1.5V14C1.5 15.1046 2.39543 16 3.5 16H14.5C15.6046 16 16.5 15.1046 16.5 14V2H17C17.5523 2 18 1.55228 18 1C18 0.447715 17.5523 0 17 0H14.5H3.5H1Z" fill="#1F2937"/>
<path d="M1.5 2H3.5V0H1.5V2ZM16.5 2V0H14.5V2H16.5ZM2 1C2 1.55228 1.55228 2 1 2V-2C-0.656854 -2 -2 -0.656854 -2 1H2ZM1 0C1.55228 0 2 0.447715 2 1H-2C-2 2.65685 -0.656854 4 1 4V0ZM1.5 0H1V4H1.5V0ZM3.5 14V2H-0.5V14H3.5ZM3.5 14H-0.5C-0.5 16.2091 1.29086 18 3.5 18V14ZM14.5 14H3.5V18H14.5V14ZM14.5 14V18C16.7091 18 18.5 16.2091 18.5 14H14.5ZM14.5 2V14H18.5V2H14.5ZM17 0H16.5V4H17V0ZM16 1C16 0.447715 16.4477 0 17 0V4C18.6569 4 20 2.65685 20 1H16ZM17 2C16.4477 2 16 1.55229 16 1H20C20 -0.656855 18.6569 -2 17 -2V2ZM14.5 2H17V-2H14.5V2ZM3.5 2H14.5V-2H3.5V2ZM1 2H3.5V-2H1V2Z" fill="#1F2937" mask="url(#path-1-inside-1_968_914)"/>
<path fill-rule="evenodd" clip-rule="evenodd" d="M8.99961 3.09998C9.49667 3.09998 9.89961 3.50292 9.89961 3.99998V9.91699L11.8828 8.05048C12.2447 7.70981 12.8143 7.72707 13.155 8.08903C13.4957 8.45099 13.4784 9.02057 13.1164 9.36124L9.61644 12.6554C9.2699 12.9815 8.72933 12.9815 8.38278 12.6554L4.88278 9.36124C4.52083 9.02057 4.50357 8.45099 4.84423 8.08903C5.1849 7.72707 5.75448 7.70981 6.11644 8.05048L8.09961 9.91699V3.99998C8.09961 3.50292 8.50256 3.09998 8.99961 3.09998Z" fill="#F9FAFB"/>
</svg>
